Results
version=1
nRows=8
nColumns=27
inDegrees=yes
endheader
time	r_x	r_y	r_z	t_x	t_y	t_z	sternoclavicular_r2	sternoclavicular_r3	unrotscap_r3	unrotscap_r2	acromioclavicular_r2	acromioclavicular_r3	acromioclavicular_r1	unrothum_r1	unrothum_r3	unrothum_r2	elv_angle	shoulder_elv	shoulder1_r2	shoulder_rot	elbow_flexion	pro_sup	deviation	flexion	wrist_hand_r1	wrist_hand_r3
      1.25000000	     90.00025122	      0.00039547	     10.00068624	     -0.39024581	      0.34678139	      0.30773052	     -6.82685506	      2.89117371	     -2.89206832	      6.82730968	     -1.38220877	     11.17192805	      5.02234304	     -5.02097266	    -11.17134832	      1.38246199	     50.52967351	     28.21136182	    -50.52948550	     -1.12486475	     84.53720540	     38.31504292	     -0.00030172	     -0.00000444	     -0.00051666	     -0.00000650
      1.25500000	     90.00017990	      0.00029891	     10.00083617	     -0.38880458	      0.34692898	      0.30780674	     -6.82994977	      2.89249542	     -2.89327284	      6.83020220	     -1.38294371	     11.17695832	      5.02456252	     -5.02315908	    -11.17611684	      1.38294400	     50.53492067	     28.22384803	    -50.53470838	     -1.12210680	     84.52850097	     38.31600166	      0.00061094	     -0.00000425	      0.00112087	     -0.00000589
      1.26000000	     90.00044228	      0.00035627	     10.00035190	     -0.39173544	      0.34829671	      0.30580799	     -7.15786136	      3.03124996	     -3.03245141	      7.15838429	     -1.44907338	     11.71317597	      5.26573448	     -5.26445432	    -11.71329897	      1.44959571	     51.24472841	     29.57890408	    -51.24459795	     -0.53677241	     82.59244893	     38.52850844	      0.00002171	     -0.00003108	      0.00003775	      0.00001402
      1.26500000	     90.00048640	      0.00062580	     10.00057100	     -0.39000775	      0.34864026	      0.30663366	     -7.16087620	      3.03249364	     -3.03386078	      7.16174633	     -1.44962939	     11.71863802	      5.26831937	     -5.26667173	    -11.71843156	      1.45036042	     51.25309777	     29.59237565	    -51.25277276	     -0.52973487	     82.59315063	     38.52896629	     -0.00001539	     -0.00000661	     -0.00004469	     -0.00001126
      1.27000000	     90.00045915	      0.00053907	     10.00072277	     -0.38912821	      0.34840280	      0.30712355	     -7.16406812	      3.03381043	     -3.03516478	      7.16475225	     -1.45036379	     11.72379240	      5.27065278	     -5.26889740	    -11.72340615	      1.45088805	     51.25867389	     29.60551598	    -51.25837591	     -0.52984516	     82.59121332	     38.52935474	      0.00004563	     -0.00000444	      0.00009885	     -0.00000533
      1.27500000	     90.00010173	      0.00008014	      9.99998940	     -0.39353101	      0.34620574	      0.30531685	     -7.36757490	      3.12045187	     -3.12067758	      7.36767437	     -1.49175428	     12.05612351	      5.41924932	     -5.41915485	    -12.05615594	      1.49178071	     54.60666991	     30.44473925	    -54.60670038	     -0.21548210	     80.38660961	     38.10298581	      0.00002721	     -0.00003016	     -0.00000449	     -0.00004764
      1.28000000	     90.00004307	     -0.00000198	      9.99995984	     -0.39196271	      0.34583185	      0.30546998	     -7.36914832	      3.12119184	     -3.12120905	      7.36906632	     -1.49216888	     12.05859575	      5.42022252	     -5.42039847	    -12.05860427	      1.49197982	     54.60698547	     30.45082691	    -54.60706039	     -0.21719163	     80.37605420	     38.10461824	      0.00001762	      0.00004448	      0.00000854	      0.00005606
      1.28500000	     90.00003896	      0.00010088	     10.00011026	     -0.39092270	      0.34604940	      0.30596234	     -7.37100695	      3.12196352	     -3.12208552	      7.37112190	     -1.49247275	     12.06188362	      5.42180845	     -5.42168819	    -12.06168290	      1.49247112	     54.60933294	     30.45910215	    -54.60928001	     -0.21375300	     80.36935819	     38.10625516	      0.00000024	     -0.00005204	      0.00000487	     -0.00006707
